# File created by Blade
# Date/Time:  Fri Jan 16 19:14:28 2015
# Frame Rate: 120.000 fps
#------------------------------------------------------
:FULLY-SPECIFIED
:DEGREES
1163
root 19.222341 35.694885 -21.060088 -169.566182 -2.930035 -178.829856
Spine -19.062754 0.575961 -1.135588
Head 8.141956 -2.988411 2.633233
LeftShoulder -10.148112 -34.161722 16.875062
LeftArm 0.295851 0.273041 -8.436908
LeftForeArm 12.386524 0.000000 -2.741787
LeftHand -3.751592 -0.000000 -6.317559
LeftHandThumb1 -26.253704 0.000000 33.147579
RightShoulder -8.939283 -0.945965 -8.321458
RightArm 1.103822 42.543154 17.244193
RightForeArm -37.013373 -0.000000 4.860290
RightHand -2.782058 -0.000000 -0.520236
RightHandThumb1 -24.326973 -0.000000 -32.862282
LeftUpLeg -3.368655 7.123981 0.523060
LeftLeg -6.693512 -0.000000 0.000000
LeftFoot -18.505330 28.120222 -12.618825
LeftToeBase 25.366293 -0.000000 -0.000000
RightUpLeg -4.317789 -9.879915 1.519062
RightLeg -3.629418 -0.000000 0.000000
RightFoot -19.242370 -24.584194 16.473889
RightToeBase 23.835214 -0.000000 -0.000000
1164
root 19.220663 35.693792 -21.066478 -169.554108 -2.960209 -178.835361
Spine -19.095731 0.548407 -1.120944
Head 8.126614 -3.001953 2.617407
LeftShoulder -10.198799 -34.147601 16.913485
LeftArm 0.305178 0.329658 -8.387882
LeftForeArm 12.485115 -0.000000 -2.731938
LeftHand -3.835542 -0.000000 -6.306780
LeftHandThumb1 -26.253704 0.000000 33.147579
RightShoulder -8.999257 -0.988159 -8.372576
RightArm 1.214265 42.594101 17.248495
RightForeArm -37.044116 0.000000 4.864658
RightHand -2.730777 -0.000000 -0.562809
RightHandThumb1 -24.326973 -0.000000 -32.862282
LeftUpLeg -3.373405 7.077933 0.522340
LeftLeg -6.692221 -0.000000 0.000000
LeftFoot -18.504156 28.146538 -12.595873
LeftToeBase 25.398474 -0.000000 -0.000000
RightUpLeg -4.312836 -9.892236 1.515884
RightLeg -3.635022 -0.000000 0.000000
RightFoot -19.260269 -24.597063 16.476119
RightToeBase 23.821385 -0.000000 -0.000000
1165
root 19.220220 35.692857 -21.071977 -169.533574 -2.988329 -178.838640
Spine -19.139524 0.522563 -1.107415
Head 8.121454 -2.987688 2.600417
LeftShoulder -10.254482 -34.141412 16.982374
LeftArm 0.285406 0.401222 -8.367160
LeftForeArm 12.597667 -0.000000 -2.690675
LeftHand -3.834228 -0.000000 -6.311463
LeftHandThumb1 -26.253704 0.000000 33.147579
RightShoulder -9.047708 -0.979163 -8.400233
RightArm 1.236042 42.611337 17.137423
RightForeArm -37.115457 0.000000 4.870977
RightHand -2.786507 -0.000000 -0.562013
RightHandThumb1 -24.326973 -0.000000 -32.862282
LeftUpLeg -3.389355 7.049526 0.522619
LeftLeg -6.688822 -0.000000 0.000000
LeftFoot -18.509600 28.140770 -12.590676
LeftToeBase 25.358701 -0.000000 -0.000000
RightUpLeg -4.314787 -9.881826 1.514376
RightLeg -3.644464 -0.000000 0.000000
RightFoot -19.272715 -24.622905 16.465319
RightToeBase 23.804216 -0.000000 -0.000000
1166
root 19.218810 35.691652 -21.079259 -169.520106 -3.002264 -178.847747
Spine -19.182867 0.517544 -1.107046
Head 8.128134 -2.985705 2.586936
LeftShoulder -10.278788 -34.123536 17.021641
LeftArm 0.306952 0.460300 -8.327543
LeftForeArm 12.617716 -0.000000 -2.766121
LeftHand -3.738522 -0.000000 -6.279548
LeftHandThumb1 -26.253704 0.000000 33.147579
RightShoulder -9.097545 -1.023962 -8.448115
RightArm 1.317748 42.538362 17.114521
RightForeArm -37.092104 -0.000000 4.869015
RightHand -2.908140 0.000000 -0.621996
RightHandThumb1 -24.326973 -0.000000 -32.862282
LeftUpLeg -3.389835 7.026920 0.514821
LeftLeg -6.693575 -0.000000 0.000000
LeftFoot -18.525500 28.149429 -12.600434
LeftToeBase 25.354356 -0.000000 -0.000000
RightUpLeg -4.311715 -9.893721 1.507070
RightLeg -3.648303 -0.000000 0.000000
RightFoot -19.288471 -24.634484 16.441541
RightToeBase 23.859585 -0.000000 -0.000000
1167
root 19.217734 35.690597 -21.085922 -169.501720 -3.021195 -178.857409
Spine -19.228464 0.499686 -1.100107
Head 8.122684 -2.969819 2.553352
LeftShoulder -10.319328 -34.128576 17.075470
LeftArm 0.281671 0.509977 -8.290253
LeftForeArm 12.686006 -0.000000 -2.742720
LeftHand -3.773635 -0.000000 -6.231825
LeftHandThumb1 -26.253704 0.000000 33.147579
RightShoulder -9.129771 -1.007943 -8.506680
RightArm 1.341578 42.528977 17.033870
RightForeArm -37.145517 -0.000000 4.864172
RightHand -2.936341 0.000000 -0.662565
RightHandThumb1 -24.326973 -0.000000 -32.862282
LeftUpLeg -3.399967 7.014705 0.505100
LeftLeg -6.691310 -0.000000 0.000000
LeftFoot -18.532625 28.134144 -12.597994
LeftToeBase 25.366735 -0.000000 -0.000000
RightUpLeg -4.312999 -9.893487 1.499231
RightLeg -3.655277 -0.000000 0.000000
RightFoot -19.303609 -24.664467 16.436229
RightToeBase 23.864723 -0.000000 -0.000000
1168
root 19.217452 35.689754 -21.092749 -169.497215 -3.041578 -178.854879
Spine -19.255044 0.485704 -1.084120
Head 8.122023 -2.952584 2.549740
LeftShoulder -10.352579 -34.021610 17.094187
LeftArm 0.298192 0.302241 -8.254550
LeftForeArm 12.915990 -0.000000 -2.726186
LeftHand -3.746049 -0.000000 -6.160704
LeftHandThumb1 -26.253704 0.000000 33.147579
RightShoulder -9.158619 -1.039876 -8.540814
RightArm 1.359898 42.560491 16.942531
RightForeArm -37.255907 -0.000000 4.884517
RightHand -2.885976 0.000000 -0.594540
RightHandThumb1 -24.326973 -0.000000 -32.862282
LeftUpLeg -3.391872 6.981505 0.513270
LeftLeg -6.699245 -0.000000 0.000000
LeftFoot -18.543442 28.157224 -12.586619
LeftToeBase 25.373570 -0.000000 -0.000000
RightUpLeg -4.300821 -9.909468 1.504901
RightLeg -3.662231 -0.000000 0.000000
RightFoot -19.317380 -24.661104 16.445810
RightToeBase 23.826642 -0.000000 -0.000000
1169
root 19.215440 35.688972 -21.099784 -169.486470 -3.045014 -178.864588
Spine -19.290939 0.469867 -1.077494
Head 8.115609 -2.926610 2.543828
LeftShoulder -10.392314 -33.996125 17.140880
LeftArm 0.275550 0.326241 -8.216100
LeftForeArm 12.973952 -0.000000 -2.707136
LeftHand -3.745411 -0.000000 -6.204961
LeftHandThumb1 -26.253704 0.000000 33.147579
RightShoulder -9.145449 -1.021220 -8.593804
RightArm 1.308791 42.491209 16.799458
RightForeArm -37.149308 -0.000000 4.893022
RightHand -2.686068 -0.000000 -0.423157
RightHandThumb1 -24.326973 -0.000000 -32.862282
LeftUpLeg -3.390217 6.965593 0.502666
LeftLeg -6.698846 -0.000000 0.000000
LeftFoot -18.559181 28.157738 -12.602191
LeftToeBase 25.388479 -0.000000 -0.000000
RightUpLeg -4.295921 -9.914101 1.493125
RightLeg -3.667210 -0.000000 0.000000
RightFoot -19.323793 -24.658465 16.431745
RightToeBase 23.837586 -0.000000 -0.000000
1170
root 19.214061 35.688115 -21.105959 -169.468610 -3.054297 -178.870837
Spine -19.328585 0.447059 -1.065897
Head 8.095172 -2.923049 2.530706
LeftShoulder -10.445045 -33.974211 17.193834
LeftArm 0.264002 0.346047 -8.182188
LeftForeArm 12.933081 0.000000 -2.686841
LeftHand -3.867316 -0.000000 -6.129781
LeftHandThumb1 -26.253704 0.000000 33.147579
RightShoulder -9.165786 -1.038745 -8.646879
RightArm 1.387368 42.424799 16.770538
RightForeArm -37.086959 -0.000000 4.846148
RightHand -2.750936 -0.000000 -0.661320
RightHandThumb1 -24.326973 -0.000000 -32.862282
LeftUpLeg -3.400258 6.960560 0.494373
LeftLeg -6.697425 -0.000000 0.000000
LeftFoot -18.561231 28.161204 -12.600848
LeftToeBase 25.355285 -0.000000 -0.000000
RightUpLeg -4.298144 -9.915858 1.487644
RightLeg -3.674758 -0.000000 0.000000
RightFoot -19.329637 -24.674210 16.424487
RightToeBase 23.835329 -0.000000 -0.000000
1171
root 19.213029 35.687168 -21.113062 -169.464589 -3.055249 -178.876628
Spine -19.350556 0.440997 -1.057994
Head 8.081909 -2.906579 2.523314
LeftShoulder -10.488537 -33.935233 17.236756
LeftArm 0.262593 0.327245 -8.159285
LeftForeArm 12.954159 -0.000000 -2.686485
LeftHand -3.886354 0.000000 -6.069625
LeftHandThumb1 -26.253704 0.000000 33.147579
RightShoulder -9.184585 -1.064537 -8.693507
RightArm 1.426089 42.475164 16.698108
RightForeArm -37.149910 -0.000000 4.822608
RightHand -2.825573 -0.000000 -0.594914
RightHandThumb1 -24.326973 -0.000000 -32.862282
LeftUpLeg -3.391278 6.951596 0.490235
LeftLeg -6.698008 -0.000000 0.000000
LeftFoot -18.580203 28.154675 -12.608577
LeftToeBase 25.410172 -0.000000 -0.000000
RightUpLeg -4.285082 -9.916318 1.478300
RightLeg -3.682407 -0.000000 0.000000
RightFoot -19.347968 -24.664297 16.427556
RightToeBase 23.829610 -0.000000 -0.000000
1172
root 19.211984 35.686675 -21.119050 -169.445453 -3.045910 -178.872150
Spine -19.390642 0.449510 -1.031239
Head 8.063693 -2.894035 2.485486
LeftShoulder -10.518106 -33.909278 17.260699
LeftArm 0.234635 0.304466 -8.116905
LeftForeArm 13.012907 -0.000000 -2.671255
LeftHand -3.819408 0.000000 -6.108982
LeftHandThumb1 -26.253704 0.000000 33.147579
RightShoulder -9.192726 -1.078193 -8.745725
RightArm 1.426685 42.515064 16.572870
RightForeArm -37.307252 -0.000000 4.786485
RightHand -2.753103 0.000000 -0.478668
RightHandThumb1 -24.326973 -0.000000 -32.862282
LeftUpLeg -3.398475 6.942684 0.493477
LeftLeg -6.697258 -0.000000 0.000000
LeftFoot -18.586803 28.173205 -12.596375
LeftToeBase 25.363372 -0.000000 -0.000000
RightUpLeg -4.293237 -9.895470 1.481243
RightLeg -3.686729 -0.000000 0.000000
RightFoot -19.354920 -24.678733 16.434766
RightToeBase 23.840900 -0.000000 -0.000000
1173
root 19.210482 35.686077 -21.125217 -169.432025 -3.039187 -178.874749
Spine -19.422980 0.467853 -1.027564
Head 8.046044 -2.904334 2.475686
LeftShoulder -10.544343 -33.877107 17.298305
LeftArm 0.229365 0.318374 -8.101370
LeftForeArm 13.009826 -0.000000 -2.676368
LeftHand -3.832703 -0.000000 -6.106221
LeftHandThumb1 -26.253704 0.000000 33.147579
RightShoulder -9.227918 -1.081682 -8.778947
RightArm 1.456131 42.540288 16.474849
RightForeArm -37.336976 0.000000 4.770689
RightHand -2.758304 0.000000 -0.479717
RightHandThumb1 -24.326973 -0.000000 -32.862282
LeftUpLeg -3.395623 6.953796 0.485960
LeftLeg -6.709160 -0.000000 0.000000
LeftFoot -18.595793 28.164706 -12.620400
LeftToeBase 25.327471 -0.000000 -0.000000
RightUpLeg -4.295616 -9.902268 1.477394
RightLeg -3.690143 -0.000000 0.000000
RightFoot -19.354734 -24.669679 16.426867
RightToeBase 23.810566 -0.000000 -0.000000
1174
root 19.209278 35.685596 -21.125628 -169.367814 -2.977583 -178.892249
Spine -19.503984 0.524935 -1.061369
Head 8.013819 -2.904424 2.507207
LeftShoulder -10.563197 -33.851251 17.356130
LeftArm 0.203886 0.336631 -8.082360
LeftForeArm 12.985641 -0.000000 -2.670678
LeftHand -3.842984 -0.000000 -6.126890
LeftHandThumb1 -26.253704 0.000000 33.147579
RightShoulder -9.261146 -1.101528 -8.815878
RightArm 1.494197 42.607816 16.420430
RightForeArm -37.336814 0.000000 4.800808
RightHand -2.800660 -0.000000 -0.417868
RightHandThumb1 -24.326973 -0.000000 -32.862282
LeftUpLeg -3.453594 7.013442 0.449801
LeftLeg -6.704409 -0.000000 0.000000
LeftFoot -18.595612 28.157966 -12.612494
LeftToeBase 25.391537 -0.000000 -0.000000
RightUpLeg -4.376071 -9.815793 1.455771
RightLeg -3.665750 -0.000000 0.000000
RightFoot -19.374141 -24.700989 16.395754
RightToeBase 23.867125 -0.000000 -0.000000
